<svg xmlns="http://www.w3.org/2000/svg" id="uuid-687964b5-0472-41a9-9663-85ecf61209c4" viewBox="0 0 142 142"><defs><style>.uuid-96f50813-0d4d-45dc-ba5c-ff2bab01112c{fill:#fff;}.uuid-5cb40c96-b8d7-40d8-92fc-5d530d0be4fb{fill:#a5906d;}</style></defs><rect class="uuid-5cb40c96-b8d7-40d8-92fc-5d530d0be4fb" width="142" height="142"></rect><path class="uuid-96f50813-0d4d-45dc-ba5c-ff2bab01112c" d="m86.28,44.32c-5.54-12.49-13.28-23.27-22.5-32.04-.03-.03-.08-.04-.11-.06.29-1.09.57-2.19.87-3.27.11-.41-.19-.81-.61-.81-.28,0-.53.18-.61.45-5.32,17.02-9.11,35.42-11.1,54.77-.17-.1-.35-.18-.56-.18-.53,0-.99.37-1.09.9-3.58,18.26-5.51,37.66-5.51,57.76,0,4.09.08,8.14.24,12.17h4.14c-.44-6.68-.66-13.45-.66-20.3,0-13.36.86-26.41,2.49-39.03-.44,6.67-.67,13.42-.67,20.27s.21,13.01.61,19.39c.07,1.14,1.01,2.03,2.16,2.03,1.27,0,2.26-1.09,2.15-2.35-.79-8.89-1.19-17.98-1.19-27.21,0-25.76,3.17-50.36,8.92-72.91,7.91,7.61,14.51,16.82,19.22,27.45,14.04,31.63,7.77,67.26-13.19,92.67h12.39c15.38-25.67,18.18-59.14,4.62-89.68Z"></path></svg>